{
  "accessors": [
    {
      "bufferView": 2,
      "componentType": 5126,
      "count": 10315,
      "max": [
        25.19072151184082,
        18.82619285583496,
        -14.079602241516113
      ],
      "min": [
        -24.730236053466797,
        -18.944068908691406,
        -160.09927368164063
      ],
      "type": "VEC3"
    },
    {
      "bufferView": 2,
      "byteOffset": 123780,
      "componentType": 5126,
      "count": 10315,
      "max": [
        0.9999744296073914,
        0.9999983310699463,
        0.4716353118419647
      ],
      "min": [
        -0.9999759793281555,
        -0.9999919533729553,
        -0.9790302515029907
      ],
      "type": "VEC3"
    },
    {
      "bufferView": 1,
      "componentType": 5126,
      "count": 10315,
      "max": [
        0.6011546850204468,
        1.7588609457015991
      ],
      "min": [
        -0.602611243724823,
        0.20172621309757233
      ],
      "type": "VEC2"
    },
    {
      "bufferView": 0,
      "componentType": 5125,
      "count": 59370,
      "type": "SCALAR"
    }
  ],
  "asset": {
    "extras": {
      "author": "samsikua (https://sketchfab.com/samsikua)",
      "license": "CC-BY-4.0 (http://creativecommons.org/licenses/by/4.0/)",
      "source": "https://sketchfab.com/3d-models/evening-red-dress-744a278961a24cb799dc3dc76ab45387",
      "title": "Evening Red Dress"
    },
    "generator": "Sketchfab-13.37.1",
    "version": "2.0"
  },
  "bufferViews": [
    {
      "buffer": 0,
      "byteLength": 237480,
      "name": "floatBufferViews",
      "target": 34963
    },
    {
      "buffer": 0,
      "byteLength": 82520,
      "byteOffset": 237480,
      "byteStride": 8,
      "name": "floatBufferViews",
      "target": 34962
    },
    {
      "buffer": 0,
      "byteLength": 247560,
      "byteOffset": 320000,
      "byteStride": 12,
      "name": "floatBufferViews",
      "target": 34962
    }
  ],
  "buffers": [
    {
      "byteLength": 567560,
      "uri": "scene.bin"
    }
  ],
  "materials": [
    {
      "doubleSided": true,
      "name": "FABRIC_1_FRONT_1309",
      "pbrMetallicRoughness": {
        "baseColorFactor": [
          0.580394,
          0.00145208,
          0.0,
          1.0
        ],
        "metallicFactor": 0.716535,
        "roughnessFactor": 0.0
      }
    }
  ],
  "meshes": [
    {
      "name": "Object_0",
      "primitives": [
        {
          "attributes": {
            "NORMAL": 1,
            "POSITION": 0,
            "TEXCOORD_0": 2
          },
          "indices": 3,
          "material": 0,
          "mode": 4
        }
      ]
    }
  ],
  "nodes": [
    {
      "children": [
        1
      ],
      "matrix": [
        1.0,
        0.0,
        0.0,
        0.0,
        0.0,
        2.220446049250313e-16,
        -1.0,
        0.0,
        0.0,
        1.0,
        2.220446049250313e-16,
        0.0,
        0.0,
        0.0,
        0.0,
        1.0
      ],
      "name": "Sketchfab_model"
    },
    {
      "children": [
        2
      ],
      "name": "root"
    },
    {
      "children": [
        3
      ],
      "matrix": [
        1.0,
        0.0,
        0.0,
        0.0,
        0.0,
        2.220446049250313e-16,
        1.0,
        0.0,
        0.0,
        -1.0,
        2.220446049250313e-16,
        0.0,
        0.0,
        0.0,
        0.0,
        1.0
      ],
      "name": "GLTF_SceneRootNode"
    },
    {
      "children": [
        4
      ],
      "matrix": [
        0.010000000707805157,
        0.0,
        0.0,
        0.0,
        0.0,
        -1.685874088641884e-09,
        0.010000000707805014,
        0.0,
        0.0,
        -0.010000000707805014,
        -1.685874088641884e-09,
        0.0,
        0.0,
        0.0,
        0.0,
        1.0
      ],
      "name": "dress_0"
    },
    {
      "mesh": 0,
      "name": "Object_4"
    }
  ],
  "scene": 0,
  "scenes": [
    {
      "name": "Sketchfab_Scene",
      "nodes": [
        0
      ]
    }
  ]
}
