<svg width="144" height="49" viewBox="0 0 144 49" fill="none" xmlns="http://www.w3.org/2000/svg">
<path d="M28.72 39.48C26.56 39.48 24.5467 39.1333 22.68 38.44C20.84 37.72 19.24 36.7067 17.88 35.4C16.52 34.0933 15.4533 32.56 14.68 30.8C13.9333 29.04 13.56 27.1067 13.56 25C13.56 22.8933 13.9333 20.96 14.68 19.2C15.4533 17.44 16.52 15.9067 17.88 14.6C19.2667 13.2933 20.88 12.2933 22.72 11.6C24.56 10.88 26.5733 10.52 28.76 10.52C31.1867 10.52 33.3733 10.9467 35.32 11.8C37.2933 12.6267 38.9467 13.8533 40.28 15.48L36.12 19.32C35.16 18.2267 34.0933 17.4133 32.92 16.88C31.7467 16.32 30.4667 16.04 29.08 16.04C27.7733 16.04 26.5733 16.2533 25.48 16.68C24.3867 17.1067 23.44 17.72 22.64 18.52C21.84 19.32 21.2133 20.2667 20.76 21.36C20.3333 22.4533 20.12 23.6667 20.12 25C20.12 26.3333 20.3333 27.5467 20.76 28.64C21.2133 29.7333 21.84 30.68 22.64 31.48C23.44 32.28 24.3867 32.8933 25.48 33.32C26.5733 33.7467 27.7733 33.96 29.08 33.96C30.4667 33.96 31.7467 33.6933 32.92 33.16C34.0933 32.6 35.16 31.76 36.12 30.64L40.28 34.48C38.9467 36.1067 37.2933 37.3467 35.32 38.2C33.3733 39.0533 31.1733 39.48 28.72 39.48ZM44.2159 39V9.32H50.4559V39H44.2159ZM66.4872 39.32C64.1939 39.32 62.1539 38.84 60.3672 37.88C58.6072 36.92 57.2072 35.6133 56.1672 33.96C55.1539 32.28 54.6472 30.3733 54.6472 28.24C54.6472 26.08 55.1539 24.1733 56.1672 22.52C57.2072 20.84 58.6072 19.5333 60.3672 18.6C62.1539 17.64 64.1939 17.16 66.4872 17.16C68.7539 17.16 70.7805 17.64 72.5672 18.6C74.3539 19.5333 75.7539 20.8267 76.7672 22.48C77.7805 24.1333 78.2872 26.0533 78.2872 28.24C78.2872 30.3733 77.7805 32.28 76.7672 33.96C75.7539 35.6133 74.3539 36.92 72.5672 37.88C70.7805 38.84 68.7539 39.32 66.4872 39.32ZM66.4872 34.2C67.5272 34.2 68.4605 33.96 69.2872 33.48C70.1139 33 70.7672 32.32 71.2472 31.44C71.7272 30.5333 71.9672 29.4667 71.9672 28.24C71.9672 26.9867 71.7272 25.92 71.2472 25.04C70.7672 24.16 70.1139 23.48 69.2872 23C68.4605 22.52 67.5272 22.28 66.4872 22.28C65.4472 22.28 64.5139 22.52 63.6872 23C62.8605 23.48 62.1939 24.16 61.6872 25.04C61.2072 25.92 60.9672 26.9867 60.9672 28.24C60.9672 29.4667 61.2072 30.5333 61.6872 31.44C62.1939 32.32 62.8605 33 63.6872 33.48C64.5139 33.96 65.4472 34.2 66.4872 34.2ZM89.6981 39.32C87.8581 39.32 86.0848 39.1067 84.3781 38.68C82.6981 38.2267 81.3648 37.6667 80.3781 37L82.4581 32.52C83.4448 33.1333 84.6048 33.64 85.9381 34.04C87.2981 34.4133 88.6315 34.6 89.9381 34.6C91.3781 34.6 92.3915 34.4267 92.9781 34.08C93.5915 33.7333 93.8981 33.2533 93.8981 32.64C93.8981 32.1333 93.6581 31.76 93.1781 31.52C92.7248 31.2533 92.1115 31.0533 91.3381 30.92C90.5648 30.7867 89.7115 30.6533 88.7781 30.52C87.8715 30.3867 86.9515 30.2133 86.0181 30C85.0848 29.76 84.2315 29.4133 83.4581 28.96C82.6848 28.5067 82.0581 27.8933 81.5781 27.12C81.1248 26.3467 80.8981 25.3467 80.8981 24.12C80.8981 22.76 81.2848 21.56 82.0581 20.52C82.8581 19.48 84.0048 18.6667 85.4981 18.08C86.9915 17.4667 88.7781 17.16 90.8581 17.16C92.3248 17.16 93.8181 17.32 95.3381 17.64C96.8581 17.96 98.1248 18.4267 99.1381 19.04L97.0581 23.48C96.0181 22.8667 94.9648 22.4533 93.8981 22.24C92.8581 22 91.8448 21.88 90.8581 21.88C89.4715 21.88 88.4581 22.0667 87.8181 22.44C87.1781 22.8133 86.8581 23.2933 86.8581 23.88C86.8581 24.4133 87.0848 24.8133 87.5381 25.08C88.0181 25.3467 88.6448 25.56 89.4181 25.72C90.1915 25.88 91.0315 26.0267 91.9381 26.16C92.8715 26.2667 93.8048 26.44 94.7381 26.68C95.6715 26.92 96.5115 27.2667 97.2581 27.72C98.0315 28.1467 98.6581 28.7467 99.1381 29.52C99.6181 30.2667 99.8581 31.2533 99.8581 32.48C99.8581 33.8133 99.4581 35 98.6581 36.04C97.8581 37.0533 96.6981 37.8533 95.1781 38.44C93.6848 39.0267 91.8581 39.32 89.6981 39.32ZM114.388 39.32C111.935 39.32 109.775 38.84 107.908 37.88C106.068 36.92 104.641 35.6133 103.628 33.96C102.615 32.28 102.108 30.3733 102.108 28.24C102.108 26.08 102.601 24.1733 103.588 22.52C104.601 20.84 105.975 19.5333 107.708 18.6C109.441 17.64 111.401 17.16 113.588 17.16C115.695 17.16 117.588 17.6133 119.268 18.52C120.975 19.4 122.321 20.68 123.308 22.36C124.295 24.0133 124.788 26 124.788 28.32C124.788 28.56 124.775 28.84 124.748 29.16C124.721 29.4533 124.695 29.7333 124.668 30H107.188V26.36H121.388L118.988 27.44C118.988 26.32 118.761 25.3467 118.308 24.52C117.855 23.6933 117.228 23.0533 116.428 22.6C115.628 22.12 114.695 21.88 113.628 21.88C112.561 21.88 111.615 22.12 110.788 22.6C109.988 23.0533 109.361 23.7067 108.908 24.56C108.455 25.3867 108.228 26.3733 108.228 27.52V28.48C108.228 29.6533 108.481 30.6933 108.988 31.6C109.521 32.48 110.255 33.16 111.188 33.64C112.148 34.0933 113.268 34.32 114.548 34.32C115.695 34.32 116.695 34.1467 117.548 33.8C118.428 33.4533 119.228 32.9333 119.948 32.24L123.268 35.84C122.281 36.96 121.041 37.8267 119.548 38.44C118.055 39.0267 116.335 39.32 114.388 39.32ZM137.743 39.32C135.209 39.32 133.236 38.68 131.823 37.4C130.409 36.0933 129.703 34.16 129.703 31.6V12.72H135.943V31.52C135.943 32.4267 136.183 33.1333 136.663 33.64C137.143 34.12 137.796 34.36 138.623 34.36C139.609 34.36 140.449 34.0933 141.143 33.56L142.823 37.96C142.183 38.4133 141.409 38.76 140.503 39C139.623 39.2133 138.703 39.32 137.743 39.32ZM126.383 22.76V17.96H141.303V22.76H126.383Z" fill="#FAB15C"/>
<path d="M2.16 39V22.86H6.84V39H2.16ZM4.5 20.61C3.64 20.61 2.94 20.36 2.4 19.86C1.86 19.36 1.59 18.74 1.59 18C1.59 17.26 1.86 16.64 2.4 16.14C2.94 15.64 3.64 15.39 4.5 15.39C5.36 15.39 6.06 15.63 6.6 16.11C7.14 16.57 7.41 17.17 7.41 17.91C7.41 18.69 7.14 19.34 6.6 19.86C6.08 20.36 5.38 20.61 4.5 20.61Z" fill="white"/>
</svg>
